<svg width="655" height="414" viewBox="0 0 655 414" fill="none" xmlns="http://www.w3.org/2000/svg">
<path fill-rule="evenodd" clip-rule="evenodd" d="M313.316 17.4929C351.567 18.903 388.652 5.99484 426.6 9.43071C467.065 13.0945 508.191 21.2434 539.936 38.0116C571.906 54.8981 587.768 81.041 607.043 104.743C626.609 128.802 654.023 152.247 654.977 179.474C655.931 206.714 627.014 230.089 612.328 255.598C598.527 279.569 595.285 306.92 570.245 326.643C545.31 346.284 504.076 352.607 471.394 366.605C437.982 380.917 412.365 404.16 373.716 410.823C334.942 417.508 292.568 412.896 254.891 403.931C218.535 395.281 196.335 370.924 161.252 360.271C121.293 348.137 66.4969 357.287 35.0191 337.166C4.77324 317.832 5.97533 285.463 1.28328 258.014C-3.08365 232.467 4.80074 207.292 8.44391 181.697C12.0867 156.104 7.27441 129.416 22.9443 105.832C38.7625 82.0252 69.3107 64.0852 98.3658 46.3595C127.613 28.5166 155.731 6.15911 194.959 0.89104C234.824 -4.46257 272.68 15.9948 313.316 17.4929Z" fill="#EA3B8C"/>
<path d="M177.72 119.658C176.91 119.028 176.11 118.398 175.31 117.778C175.66 133.268 175.62 149.118 175.33 165.378C155.4 163.688 135.47 161.488 115.03 158.748C117.98 141.438 121.52 124.938 125.14 109.058C112.96 109.148 100.02 108.698 85.45 107.068C83.73 107.438 81.98 107.768 80.18 108.058C71.18 130.868 71.19 160.628 69.21 183.228C68.81 181.758 68.4 180.298 68 178.858C68.48 200.248 70.33 228.218 70.05 248.008C84.33 248.028 98.81 249.938 113.41 252.708C114.84 235.888 116.14 218.918 117.36 201.748C138.04 204.628 158.7 207.318 179.51 209.328C177.32 229.148 174.88 249.928 172.13 271.958C185.92 269.448 199.87 266.168 213.87 262.718C214.54 261.088 215.22 259.468 215.9 257.848C215.55 232.888 216.94 206.978 219.88 180.638C220.77 181.798 221.65 182.958 222.55 184.128C222.66 161.778 222.62 140.118 222.46 118.918C207.31 119.298 192.3 119.578 177.72 119.658Z" fill="white"/>
<path d="M345.43 198.118C345.59 197.688 345.75 197.268 345.92 196.838C346.9 195.648 347.88 194.458 348.87 193.258C349.01 191.388 350.37 188.878 352.96 185.688C353.46 187.238 353.96 188.788 354.47 190.318C354.34 179.108 351.12 170.648 344.76 165.128C340.05 157.018 331.91 151.178 320.27 147.868C311.65 144.658 300.61 142.808 287.15 142.188C287.87 140.818 288.59 139.438 289.33 138.058C269.13 140.718 255.66 146.628 248.86 156.738C239.28 167.208 235.24 181.928 236.73 201.108C236.17 202.618 235.61 204.148 235.05 205.688C234.96 222.968 238.51 237.048 245.85 247.548C256.29 256.658 271.16 258.508 289.65 254.618C289.9 253.188 290.15 251.778 290.4 250.358C305.69 249.808 319.2 246.308 331.06 239.568C340.22 233.768 347.64 226.898 353.28 218.978C353.19 220.578 353.11 222.188 353.03 223.788C339.5 218.918 327.86 215.318 318.04 212.908C316.84 212.138 315.65 211.378 314.46 210.628C311.91 214.798 308.42 216.608 303.98 216.098C299.72 218.578 296.1 219.028 293.16 217.488C294.48 217.978 295.8 218.478 297.12 218.968C290.53 219.428 285.4 219.478 281.78 219.128C278.14 216.078 274.66 212.638 271.3 208.868C289.42 207.048 307.39 205.378 325.24 203.878C331.97 201.958 338.7 200.038 345.43 198.118ZM294.58 175.578C295.47 174.938 296.36 174.298 297.25 173.648C295.95 174.328 294.65 175.008 293.37 175.708C298.45 175.178 301.51 175.268 302.55 175.948C305.33 177.978 307.77 179.678 309.86 181.068C297.18 181.548 284.46 182.038 271.72 182.478C272.86 183.158 273.99 183.818 275.13 184.498C276.66 180.058 279.42 177.858 283.42 177.858C287.04 174.938 290.76 174.168 294.58 175.578Z" fill="white"/>
<path d="M404.86 168.548C402.9 166.168 400.96 163.768 399.02 161.358C400.26 160.708 401.51 160.058 402.75 159.418C402.46 152.368 403.27 142.068 405.16 128.388C405.19 130.188 405.21 131.988 405.23 133.798C405.07 119.328 404 101.278 402.12 79.4079C388.56 75.7279 374.12 76.4379 359.04 80.3679C358.88 87.2079 358.7 94.1179 358.53 101.028C359.61 99.5679 360.68 98.1079 361.76 96.6479C361.51 125.308 362.79 146.858 365.43 162.058C365.72 163.678 366.01 165.288 366.3 166.898C366.43 181.318 365.75 203.118 364.23 232.038C362.97 239.648 361.71 247.228 360.45 254.768C373.58 253.098 386.79 251.148 400.11 248.888C400.86 247.508 401.61 246.138 402.37 244.768C402.01 235.308 402.92 220.228 405.04 199.448C405.76 200.838 406.48 202.238 407.2 203.648C406.77 186.038 405.99 174.258 404.86 168.548Z" fill="white"/>
<path d="M459.31 170.608C457.26 168.328 455.23 166.038 453.2 163.728C454.42 163.208 455.66 162.698 456.9 162.198C456.34 155.838 456.73 146.758 457.95 135.008C458.07 136.558 458.19 138.108 458.31 139.678C457.32 127.288 455.01 112.178 451.49 94.1579C438.06 89.3379 424.71 84.4579 411.41 79.5979C411.43 86.3279 411.46 93.1379 411.48 99.9579C412.43 98.9679 413.37 98.0079 414.32 97.0579C414.99 124.888 416.84 146.228 419.81 161.388C420.13 162.988 420.46 164.598 420.8 166.208C421.24 180.248 420.89 201.518 419.7 229.828C418.49 237.328 417.27 244.818 416.04 252.318C429.42 249.888 442.82 247.508 456.21 245.198C456.93 243.908 457.66 242.618 458.41 241.348C457.87 232.508 458.53 218.418 460.29 199.088C461.02 200.408 461.77 201.728 462.53 203.048C461.71 186.738 460.61 175.878 459.31 170.608Z" fill="white"/>
<path d="M532.45 249.998C533.1 249.718 533.75 249.448 534.42 249.188C533.06 249.178 531.69 249.168 530.33 249.178C550.87 249.288 565.21 243.548 573.29 232.228C582.96 223.768 586.94 212.288 583.53 196.278C584.73 196.438 585.93 196.628 587.16 196.848C582.94 185.598 579.34 176.428 577.13 170.258C575.3 161.788 570.93 156.658 562.62 154.418C554.17 149.208 541.59 146.448 525.19 146.088C524.1 145.098 523.02 144.108 521.95 143.138C501.07 141.518 486.66 143.618 478.5 149.798C469.84 159.058 467.2 171.628 470.59 187.108C471.72 187.978 472.84 188.838 473.97 189.688C474.86 206.198 480.3 220.808 490.38 233.428C500.64 242.958 514.66 248.478 532.45 249.998ZM533.37 211.198C533.89 211.788 534.42 212.358 534.94 212.928C534.82 214.298 534.69 215.678 534.56 217.048C526.86 216.838 519.94 215.388 513.82 212.698C510.27 208.958 507.05 202.958 504.12 194.648C504.04 193.208 503.95 191.778 503.86 190.358C503.48 184.128 506.03 178.468 511.55 173.458C514.8 169.768 521.49 168.898 531.49 170.758C531.74 172.188 531.97 173.618 532.21 175.038C539.7 175.518 544.35 178.648 546.34 184.348C550.18 188.478 551.13 192.988 549.1 197.918C548.64 196.578 548.19 195.228 547.75 193.888C548.31 200.208 547.69 204.078 545.85 205.548C542.48 209.148 538.31 211.038 533.37 211.198Z" fill="white"/>
</svg>
