<svg width="100%" height="100%" viewBox="0 0 700 704" fill="white" xmlns="http://www.w3.org/2000/svg">
    <path fill-rule="evenodd" clip-rule="evenodd"
        d="M112.86 1.56801C106.884 3.40801 98.753 10.692 96.48 16.242C95.289 19.15 94.738 23.195 94.744 29C94.751 36.373 95.895 41.992 103.376 71.395C108.119 90.037 112 105.675 112 106.145C112 107.509 87.504 107.134 74.959 105.578C60.124 103.738 39.386 98.904 30.471 95.209C26.604 93.606 19.706 89.979 15.141 87.148C5.88799 81.409 2.52599 80.752 0.880991 84.361C0.0399905 86.208 0.184991 87.462 1.54499 90.111C7.95099 102.588 50.981 176.408 74.05 214.5C81.046 226.05 87.268 237.3 87.879 239.5C89.639 245.843 89.224 256.06 86.898 263.645C85.741 267.415 78.541 283.727 70.898 299.893C63.254 316.06 57 330.044 57 330.969C57 334.732 62.066 337.744 80.897 345.18C87.829 347.917 93.899 350.543 94.387 351.015C95.661 352.248 91.013 366.541 82.525 387.5C66.511 427.038 46.515 484.398 23.437 557C11.798 593.612 1.99999 627.861 1.99999 631.928C1.99999 634.888 4.94999 638 7.75699 638C8.47899 638 16.141 635.254 24.784 631.897C33.428 628.541 51.075 621.969 64 617.294C130.919 593.088 140.5 589.825 141.99 590.731C145.322 592.758 146.997 598.258 146.998 607.179C147 617.532 147.948 619 154.628 619C159.847 619 160.792 618.623 216 594.523C261.646 574.598 265.632 572.625 267.46 569.048C270.836 562.447 270.168 551.92 265.363 536.031C261.551 523.425 257.487 516.088 231.611 475.105C218.625 454.537 208 437.077 208 436.305C208 431.932 216.11 423.189 226.086 416.808C242.68 406.193 267.31 394.152 307.5 377.007C329.442 367.646 333.213 365.706 338.178 361.221C343.389 356.513 346.619 351.397 348.103 345.504C349.613 339.508 348.406 332.041 342.48 310.708C336.39 288.788 335.831 280.394 339.454 265.317C341.548 256.607 341.899 253.68 341.042 252.079C339.559 249.308 336.162 248.615 330.884 250.006C316.245 253.865 260.061 271.376 200.679 290.587C189.777 294.114 179.129 297 177.017 297C170.423 297 167.923 292.829 152.547 256.176C148.396 246.282 145 237.505 145 236.671C145 233.867 152.58 232.455 183.5 229.496C201.436 227.779 242.615 226.575 339 224.948C424.789 223.5 430.102 222.995 432.994 216.014C433.963 213.674 433.871 212.53 432.475 209.588C429.482 203.282 420.111 195.55 364.791 153.741C351.867 143.973 340.508 135.114 339.548 134.053C336.182 130.334 338.471 128.245 404.076 75.154C425.843 57.539 445.28 41.326 447.27 39.123C451.725 34.192 452.936 29.077 450.521 25.391C447.142 20.235 431.668 15.2 408 11.555C381.179 7.42401 357.034 6.32001 198.5 1.98101C115.087 -0.301994 118.875 -0.283994 112.86 1.56801ZM678 103.051C675.525 103.492 636.6 107.936 591.5 112.927C480.818 125.176 490 123.769 490 128.484C490 132.348 495.42 136.481 510.5 144.117C518.2 148.016 524.654 151.352 524.843 151.529C526.313 152.914 504.285 159.706 478 165.972C431.632 177.026 432 176.907 432 180.906C432 184.651 436.841 188.934 452.977 199.463C468.255 209.432 477.635 216.198 490.225 226.332C501.409 235.334 500.918 236.152 480.836 241.943C466.462 246.089 455.322 247.804 435.051 248.993C416.528 250.079 415.939 250.049 392.16 246.835C374.493 244.447 373.217 244.694 369.927 251.143C363.172 264.383 360.625 276.695 362.198 288.5C363.378 297.351 368.708 313.472 373.821 323.651C375.989 327.968 378.678 334.556 379.797 338.292L381.831 345.084L378.165 347.406C376.149 348.683 369.65 352.598 363.721 356.106C352.645 362.66 340.276 372.331 336.587 377.323C334.578 380.04 334.475 381.692 333.834 421.323C332.79 485.911 330.294 520.79 320.415 608.85C317.925 631.043 316.026 650.573 316.194 652.25C316.362 653.926 317.291 655.794 318.259 656.399C321.667 658.533 325.127 655.161 330.582 644.392C342.316 621.229 351.854 586.17 358.44 542C361.895 518.823 362.677 517.198 375.421 506.691C380.964 502.12 387.149 497.146 389.165 495.636C397.136 489.668 400.751 474.392 403.028 437.047C403.632 427.143 404.582 419.004 405.223 418.231C407.298 415.731 411.877 413.986 421.378 412.075C431.562 410.026 433.601 409.199 439.116 404.878L442.732 402.044L443.423 414.772C444.309 431.078 451.141 478.708 454.969 495.265C463.624 532.704 477.843 559.732 510.067 600C525.833 619.702 537.978 632.253 552.811 644.172C567.658 656.101 575.448 661.224 591.5 669.613C614.866 681.825 634.115 689.114 667 698.205C687.402 703.845 694.538 704.628 697.893 701.595C703.264 696.739 698.122 685.945 679.985 664C668.707 650.355 655.85 632.917 648.28 621C641.282 609.984 640.68 611.068 655.5 608.005C670.801 604.844 682.399 601.809 684.75 600.35C687.443 598.679 687.656 595.879 685.25 593.791C684.288 592.955 676.555 588.74 668.066 584.423C633.556 566.874 605.837 544.507 597.065 527.129C588.286 509.738 584.576 484.117 583.302 432.082C582.715 408.119 582.78 406.702 584.433 407.336C585.398 407.706 592.558 409.846 600.344 412.091C608.13 414.335 615.337 416.921 616.36 417.836C617.383 418.751 619.794 422.65 621.718 426.5C625.617 434.306 628.185 437.506 632.245 439.618C635.024 441.064 659.733 447 662.972 447C666.521 447 669.852 443.169 670.591 438.239C671.56 431.78 669.471 412.2 665.397 389.552C653.372 322.707 648.397 261.16 652.418 229C655.734 202.484 662.865 172.812 670.103 155.412C671.725 151.513 678.215 139.589 684.526 128.913C695.695 110.018 697.386 105.786 694.8 103.2C693.471 101.871 685.049 101.797 678 103.051ZM555.2 218.2C554.54 218.86 554 220.634 554 222.141C554 225.202 550.383 234.266 530.911 279.995C523.535 297.317 516.702 312.29 515.727 313.268C514.267 314.732 514.16 315.439 515.123 317.273C515.766 318.498 516.901 319.86 517.645 320.299C518.39 320.739 522.712 323.924 527.249 327.377C538.137 335.663 558.087 348.968 565.543 352.917C568.819 354.652 572.94 356.984 574.699 358.098C577.246 359.712 578.317 359.901 579.949 359.027C581.077 358.424 582 357.351 582 356.644C582 354.997 575.009 336.03 570.337 325.002C564.286 310.719 563.795 308.994 565.794 309.036C566.732 309.056 572.675 310.898 579 313.13C593.848 318.368 597.162 318.838 599.904 316.096C602.345 313.655 602.466 310.581 601.011 288C600.067 273.353 599.057 267.821 596.759 264.694C595.924 263.558 592.47 262.457 586.5 261.425C581.55 260.569 576.502 259.223 575.282 258.433C573.617 257.354 571.702 252.747 567.591 239.926C564.581 230.538 562.367 222.208 562.671 221.415C563.969 218.032 557.956 215.444 555.2 218.2Z" />
</svg>