<?xml version="1.0" standalone="no"?>
<!DOCTYPE svg PUBLIC "-//W3C//DTD SVG 20010904//EN"
 "http://www.w3.org/TR/2001/REC-SVG-20010904/DTD/svg10.dtd">
<svg version="1.0" xmlns="http://www.w3.org/2000/svg"
 width="704.000000pt" height="704.000000pt" viewBox="0 0 704.000000 704.000000"
 preserveAspectRatio="xMidYMid meet">
<metadata>
Created by potrace 1.14, written by Peter Selinger 2001-2017
</metadata>
<g transform="translate(0.000000,704.000000) scale(0.100000,-0.100000)"
fill="#000000" stroke="none">
<path d="M1151 7023 c-80 -27 -163 -111 -176 -178 -6 -34 -7 -137 -1 -175 12
-67 28 -143 52 -230 2 -8 11 -44 19 -80 9 -36 20 -81 25 -100 5 -19 18 -71 29
-115 11 -44 24 -98 30 -120 7 -29 7 -42 -2 -48 -19 -13 -339 0 -432 17 -115
22 -242 52 -304 73 -69 22 -158 60 -171 73 -19 19 -134 76 -150 74 -34 -3 -38
-5 -44 -21 -6 -14 54 -153 74 -173 8 -8 28 -43 45 -75 8 -16 25 -48 39 -70 14
-22 31 -51 39 -65 26 -49 140 -246 183 -317 24 -40 44 -77 44 -83 0 -5 4 -10
9 -10 5 0 12 -8 15 -17 9 -24 257 -447 325 -553 82 -129 105 -187 107 -271 3
-84 -9 -140 -51 -239 -27 -65 -44 -101 -130 -285 -67 -144 -135 -301 -135
-313 0 -18 60 -58 136 -90 79 -35 128 -54 132 -52 1 0 15 -6 30 -13 15 -8 39
-20 55 -28 19 -9 26 -18 22 -30 -3 -10 -8 -26 -10 -37 -2 -10 -15 -52 -30 -93
-14 -41 -28 -81 -30 -90 -2 -9 -12 -34 -23 -55 -11 -22 -20 -42 -21 -46 -2
-13 -12 -42 -21 -63 -5 -11 -19 -45 -30 -75 -12 -30 -26 -66 -32 -80 -38 -95
-148 -402 -148 -413 0 -7 -4 -17 -9 -22 -4 -6 -43 -113 -85 -240 -43 -126 -80
-237 -83 -245 -3 -8 -8 -21 -10 -28 -1 -6 -5 -18 -6 -25 -2 -6 -7 -20 -11 -29
-4 -9 -8 -22 -10 -30 -1 -7 -5 -18 -8 -24 -4 -6 -9 -21 -12 -35 -4 -22 -17
-61 -33 -99 -7 -18 -6 -14 -21 -65 -6 -22 -12 -43 -12 -47 -1 -4 -7 -23 -16
-43 -8 -19 -11 -35 -8 -35 4 0 2 -6 -4 -12 -5 -7 -24 -58 -40 -113 -152 -499
-193 -644 -208 -723 -7 -36 5 -62 33 -73 26 -9 55 0 393 128 36 14 70 26 75
27 6 2 21 8 35 13 14 6 45 17 70 26 25 8 56 20 70 26 36 15 418 151 424 151 2
0 17 5 33 12 15 6 30 12 33 13 3 1 12 4 20 7 73 28 206 65 213 61 23 -14 45
-92 46 -163 1 -49 7 -82 17 -98 14 -22 21 -24 67 -19 47 4 141 37 252 87 112
50 184 80 193 80 6 0 12 5 14 10 2 6 13 12 26 13 12 0 22 5 22 9 0 4 7 8 15 8
14 0 35 9 75 32 8 4 22 11 30 14 78 31 314 136 387 172 108 53 126 79 127 177
2 106 -62 312 -132 432 -15 26 -31 55 -35 63 -4 8 -15 27 -25 42 -58 89 -132
211 -132 218 0 5 -3 10 -7 12 -8 3 -49 68 -191 298 -102 167 -101 162 -67 210
16 23 43 54 62 70 40 35 156 113 196 131 15 7 27 16 27 21 0 4 9 8 19 8 11 0
21 3 23 8 5 12 552 272 573 272 3 0 27 9 53 21 26 12 61 27 77 34 133 60 208
99 240 127 37 33 102 118 89 118 -3 0 -1 6 5 13 28 35 17 156 -29 328 -7 24
-15 51 -18 59 -3 8 -7 24 -9 35 -2 11 -8 38 -14 60 -6 22 -13 53 -16 70 -8 43
-10 208 -4 220 3 6 6 15 7 20 3 15 12 57 19 85 9 39 8 91 -3 102 -15 15 -64
16 -112 2 -25 -7 -45 -13 -45 -13 0 0 -7 -2 -15 -5 -13 -4 -86 -25 -115 -32
-5 -1 -39 -12 -75 -24 -36 -12 -74 -24 -85 -26 -11 -3 -24 -6 -30 -8 -23 -6
-223 -69 -250 -79 -16 -7 -34 -12 -40 -13 -5 -1 -75 -23 -155 -49 -80 -25
-152 -48 -160 -50 -8 -2 -35 -11 -60 -20 -25 -9 -52 -18 -60 -20 -8 -1 -64
-19 -125 -38 -125 -40 -159 -50 -162 -49 -2 1 -22 -6 -45 -14 -78 -28 -122
-29 -150 -2 -40 36 -102 164 -210 431 -67 166 -67 171 7 182 22 4 51 8 65 11
42 8 168 22 255 30 166 14 614 28 1260 39 927 17 1044 21 1145 40 44 8 80 27
80 41 0 8 4 14 9 14 12 0 4 45 -14 80 -7 14 -42 51 -76 81 -91 79 -300 242
-593 462 -16 12 -34 27 -40 32 -6 6 -27 22 -46 35 -19 13 -37 27 -40 30 -3 3
-22 18 -42 33 -21 15 -51 40 -67 55 -30 27 -30 28 -13 53 24 38 131 133 307
274 56 45 93 75 109 90 6 6 67 55 136 110 69 55 127 102 130 105 3 3 41 34 85
70 44 35 86 70 93 77 8 8 30 26 50 41 20 15 47 38 61 51 15 13 45 39 69 59 68
55 92 119 65 168 -18 32 -124 79 -223 99 -8 2 -35 8 -60 14 -43 10 -109 22
-140 26 -41 5 -129 17 -165 21 -22 3 -74 8 -115 10 -41 2 -106 6 -145 9 -148
9 -564 24 -1125 40 -102 3 -266 7 -365 10 -764 24 -983 25 -1034 8z"/>
<path d="M6806 6013 c-1 -2 -19 -5 -40 -8 -21 -2 -55 -7 -75 -9 -20 -3 -63 -7
-96 -11 -33 -3 -76 -8 -95 -11 -38 -5 -87 -11 -165 -19 -83 -8 -149 -16 -175
-20 -14 -2 -56 -7 -95 -10 -38 -4 -83 -9 -100 -11 -16 -2 -52 -6 -80 -8 -27
-3 -70 -8 -95 -11 -25 -3 -83 -10 -130 -15 -47 -6 -107 -13 -135 -15 -27 -3
-68 -8 -90 -10 -22 -3 -65 -8 -95 -10 -30 -3 -68 -8 -85 -10 -16 -2 -57 -7
-90 -10 -33 -3 -67 -7 -75 -10 -8 -2 -39 -7 -69 -10 -97 -12 -116 -28 -91 -75
15 -28 91 -78 214 -141 61 -30 111 -60 113 -66 2 -6 -13 -16 -34 -23 -21 -6
-45 -14 -53 -17 -8 -4 -17 -7 -20 -8 -3 -1 -12 -5 -20 -8 -18 -8 -403 -107
-440 -114 -14 -2 -52 -11 -85 -20 -33 -8 -69 -17 -80 -19 -50 -9 -158 -44
-171 -55 -41 -34 5 -86 173 -197 59 -39 113 -75 118 -80 6 -4 39 -28 75 -52
36 -25 67 -47 70 -50 4 -4 65 -51 109 -85 7 -5 34 -28 59 -51 l45 -41 -21 -21
c-23 -23 -159 -69 -262 -88 -14 -2 -36 -7 -50 -11 -38 -10 -40 -10 -115 -17
-38 -4 -90 -9 -115 -12 -81 -9 -294 -10 -345 -2 -27 5 -70 10 -95 12 -25 3
-63 8 -85 12 -71 13 -152 9 -170 -9 -33 -34 -78 -149 -101 -261 -12 -58 -4
-163 17 -238 7 -24 13 -47 15 -53 8 -35 43 -124 82 -209 24 -55 53 -126 63
-158 17 -58 17 -59 -4 -72 -105 -66 -190 -116 -197 -116 -5 0 -10 -3 -12 -7
-3 -9 -64 -53 -73 -53 -3 0 -13 -8 -24 -17 -10 -10 -39 -35 -65 -57 -73 -60
-79 -78 -80 -248 -1 -82 -3 -148 -6 -148 -3 0 -5 -80 -6 -178 -1 -189 -11
-520 -19 -612 -3 -30 -7 -91 -10 -135 -3 -44 -7 -105 -9 -135 -3 -30 -8 -89
-11 -130 -3 -41 -8 -91 -10 -110 -3 -19 -7 -64 -9 -100 -3 -36 -7 -81 -10
-100 -3 -19 -8 -64 -11 -100 -4 -36 -8 -78 -10 -95 -2 -16 -7 -57 -10 -90 -3
-33 -7 -76 -10 -95 -8 -65 -14 -120 -30 -280 -6 -62 -16 -158 -20 -200 -6 -53
4 -88 26 -95 21 -7 68 22 69 43 0 6 5 12 12 12 6 0 9 3 6 6 -4 3 5 22 18 41
13 19 21 39 18 44 -3 5 -2 9 3 9 6 0 44 77 49 100 0 3 6 19 13 35 28 67 111
346 127 428 2 12 13 69 25 127 12 58 23 114 25 125 1 11 5 34 8 50 4 25 17
102 43 260 8 54 51 134 89 167 21 18 42 38 48 43 6 6 43 35 81 66 39 31 80 66
92 77 21 21 58 106 68 159 18 99 29 190 40 333 9 120 16 195 20 215 2 11 4 26
4 32 2 25 84 59 192 78 50 9 111 35 141 60 41 34 48 32 49 -17 2 -81 18 -251
33 -353 3 -22 8 -58 11 -80 5 -42 14 -103 21 -145 2 -14 6 -41 9 -60 2 -20 11
-71 20 -115 8 -43 13 -81 10 -83 -3 -3 -1 -10 4 -16 5 -6 14 -36 20 -66 7 -30
16 -66 21 -80 4 -14 14 -45 21 -70 7 -25 17 -51 22 -57 5 -7 6 -13 2 -13 -4 0
-3 -6 3 -13 6 -6 11 -16 12 -22 9 -40 73 -180 135 -290 31 -57 181 -282 198
-300 7 -6 23 -28 37 -48 14 -20 28 -37 33 -37 4 0 7 -6 7 -14 0 -8 3 -16 8
-18 4 -1 36 -39 72 -83 237 -295 493 -509 800 -668 105 -55 299 -142 335 -151
6 -2 19 -6 30 -10 11 -5 34 -12 50 -18 17 -5 39 -14 50 -19 11 -5 29 -11 40
-12 11 -2 27 -7 35 -10 23 -9 288 -83 347 -97 84 -19 144 -15 165 10 10 12 18
31 18 41 0 19 -29 100 -39 109 -3 3 -12 17 -20 32 -8 15 -22 37 -33 47 -10 11
-18 23 -18 26 0 2 -9 15 -19 27 -20 24 -104 128 -156 193 -16 21 -34 45 -39
54 -5 9 -12 18 -16 21 -10 8 -90 118 -90 125 0 3 -12 19 -27 36 -16 17 -27 36
-25 41 1 4 -5 11 -13 14 -8 4 -15 11 -15 18 0 6 -14 31 -30 55 -40 58 -32 65
95 91 141 28 255 59 288 78 54 32 35 56 -103 127 -423 216 -688 430 -781 630
-27 59 -62 174 -73 245 -3 19 -8 46 -10 60 -10 57 -21 166 -31 310 -2 30 -7
166 -10 301 -8 255 -6 270 32 251 10 -5 45 -17 78 -26 210 -60 221 -66 268
-155 67 -123 98 -144 287 -185 115 -26 132 -28 154 -18 41 18 56 68 51 168 -3
78 -35 324 -50 394 -3 14 -15 81 -26 150 -11 69 -22 136 -24 150 -3 14 -7 45
-11 70 -3 25 -7 56 -10 70 -2 14 -6 45 -9 70 -3 25 -7 61 -10 80 -8 57 -16
121 -21 180 -2 30 -6 78 -9 105 -14 145 -18 231 -18 450 0 132 2 256 6 275 3
19 8 55 11 80 6 49 11 78 27 156 5 28 12 64 15 80 3 16 10 47 16 69 5 22 12
48 13 57 17 88 85 288 120 353 61 112 87 158 137 245 99 171 113 211 80 229
-15 8 -149 11 -156 4z m-1175 -1154 c11 -5 19 -18 18 -27 -3 -21 5 -53 38
-157 14 -44 26 -84 28 -90 3 -14 14 -43 32 -87 18 -43 31 -51 113 -66 99 -19
127 -31 138 -60 22 -57 27 -103 37 -323 5 -125 4 -137 -14 -161 -27 -34 -63
-30 -216 22 -134 45 -135 45 -135 26 0 -13 112 -303 131 -338 5 -10 9 -26 9
-36 0 -10 4 -22 9 -27 32 -36 11 -103 -27 -87 -28 12 -252 142 -262 152 -11
13 -133 90 -141 90 -5 0 -9 4 -9 9 0 5 -15 18 -33 29 -19 11 -42 26 -53 35
-10 9 -43 34 -71 57 -38 29 -53 47 -53 65 0 13 4 26 9 29 4 3 30 54 56 113 26
59 58 131 70 158 12 28 64 149 114 270 51 121 99 234 106 251 8 17 21 56 29
88 8 31 18 61 21 66 8 13 31 13 56 -1z"/>
</g>
</svg>
